# xmcd
#
# Track frame offsets:
#	183
#	26808
#	38708
#	53268
#	79128
#	106315
#	135843
#	160268
#	186480
#	223083
#	243885
#
# Disc length: 3551 seconds
#
# Revision: 0
# Processed by: cddbd v1.5.1PL0 Copyright (c) Steve Scherf et al.
# Submitted via: dBpowerAMP V4.0
#
DISCID=890ddd0b
DTITLE=Jimmy Rushing - His Complete Vanguard Recordings - Disc 2
DYEAR=1992
DGENRE=Blues
TTITLE0=Don't Cry Baby
TTITLE1=Take me back, Baby
TTITLE2=Rock And Roll
TTITLE3=Dinah
TTITLE4=Oh Love
TTITLE5=Sometimes I Think I Do
TTITLE6=Pennies From Heaven
TTITLE7=My Friend Mr.Blues
TTITLE8=If This Ain't The Blues (Instrumental)
TTITLE9=I Can't Understand
TTITLE10=Take Me With You, Baby
EXTD=
EXTT0=
EXTT1=
EXTT2=
EXTT3=
EXTT4=
EXTT5=
EXTT6=
EXTT7=
EXTT8=
EXTT9=
EXTT10=
PLAYORDER=
